<svg xmlns="http://www.w3.org/2000/svg" width="19" height="20" fill="none" viewBox="0 0 19 20"><path fill="#fff" d="M2 0.585953C0.89 0.585953 0 1.52787 0 2.67909V17.3311C0 17.8862 0.210714 18.4186 0.585786 18.8112C0.960859 19.2037 1.46957 19.4242 2 19.4242H16C16.5304 19.4242 17.0391 19.2037 17.4142 18.8112C17.7893 18.4186 18 17.8862 18 17.3311V14.9449C18.59 14.5786 19 13.9193 19 13.1448V6.86538C19 6.09092 18.59 5.43158 18 5.06528V2.67909C18 2.12396 17.7893 1.59156 17.4142 1.19902C17.0391 0.806479 16.5304 0.585953 16 0.585953H2ZM2 2.67909H16V4.77224H10C9.46957 4.77224 8.96086 4.99276 8.58579 5.3853C8.21071 5.77784 8 6.31024 8 6.86538V13.1448C8 13.6999 8.21071 14.2323 8.58579 14.6249C8.96086 15.0174 9.46957 15.2379 10 15.2379H16V17.3311H2V2.67909ZM10 6.86538H17V13.1448H10V6.86538ZM13 8.43523C12.6022 8.43523 12.2206 8.60063 11.9393 8.89503C11.658 9.18944 11.5 9.58874 11.5 10.0051C11.5 10.4214 11.658 10.8207 11.9393 11.1151C12.2206 11.4096 12.6022 11.5749 13 11.5749C13.3978 11.5749 13.7794 11.4096 14.0607 11.1151C14.342 10.8207 14.5 10.4214 14.5 10.0051C14.5 9.58874 14.342 9.18944 14.0607 8.89503C13.7794 8.60063 13.3978 8.43523 13 8.43523Z"/></svg>